<?xml version="1.0" encoding="utf-8"?>
<!-- Generator: Adobe Illustrator 24.1.2, SVG Export Plug-In . SVG Version: 6.00 Build 0)  -->
<svg version="1.1" id="Layer_1" xmlns="http://www.w3.org/2000/svg" xmlns:xlink="http://www.w3.org/1999/xlink" x="0px" y="0px"
	 width="25px" height="25px" viewBox="0 0 512 512" style="enable-background:new 0 0 512 512;fill:#fff" xml:space="preserve">
<g id="Page-1">
	<g id="_x31_18---Forward" transform="translate(-1 -1)">
		<path d="M256.9,506.1c-117.6,0-215.1-92-222-209.5c-3.4-58.1,15.7-114.4,53.7-158.4c38-44.1,90.9-71.1,148.9-76.3l16.6-1.5
			l-39.4-33.8c-3-2.4-4.4-6.3-3.8-10.1c0.7-3.8,3.4-7,7-8.2c1.1-0.4,2.3-0.6,3.5-0.6c2.6,0,5.2,1,7.1,2.7l61.9,53.1
			c2.4,2,3.7,5,3.7,8.1s-1.4,6.1-3.7,8.1l-61.7,52.9c-1.9,1.5-4.2,2.3-6.6,2.3c-3.1,0-6.1-1.4-8.1-3.7c-3.8-4.4-3.4-10.9,0.9-14.8
			L256.1,81l-22.8,2.7C125.6,96.5,47.9,191.2,56.4,299.4c8.2,104,96.3,185.4,200.4,185.4c0,0,0,0,0,0c2.7,0,5.4-0.1,8.1-0.2
			c108.4-4.3,193.3-92.6,193.3-201.1c0.2-45.1-15.2-89.3-43.2-124.6c-3.5-4.6-2.7-11.2,1.9-14.8c1.9-1.5,4.2-2.3,6.6-2.3
			c3.2,0,6.3,1.4,8.3,3.9c31,39,48,87.9,47.8,137.8c0,58.2-22.3,113.3-62.9,155.1s-94.9,65.7-153.1,67.4
			C261.3,506,259.1,506.1,256.9,506.1C256.9,506.1,256.9,506.1,256.9,506.1z"/>
		<path d="M336.4,135.2c-0.3,0-0.5,0-0.8,0c-2.8-0.2-5.4-1.5-7.3-3.7c-3.8-4.5-3.3-11.2,1.2-15l52.3-44.9l-52.5-45
			c-3-2.4-4.4-6.3-3.8-10.1c0.7-3.8,3.4-7,7-8.2c1.1-0.4,2.3-0.6,3.5-0.6c2.6,0,5.2,1,7.1,2.7l61.9,53.1c2.4,2,3.7,5,3.7,8.1
			s-1.4,6.1-3.7,8.1l-61.8,53C341.5,134.3,339,135.2,336.4,135.2z"/>
		<path d="M159.9,382.4c-5.9,0-10.7-4.8-10.7-10.7s4.8-10.7,10.7-10.7h15.8V224.9l-10.5,6c-1.6,0.9-3.4,1.4-5.3,1.4
			c-3.7,0-7.1-1.9-9.1-5c-3-4.9-1.7-11.3,3.1-14.5l26.5-17.6c1.8-1.2,3.8-1.8,5.9-1.8c1.7,0,3.5,0.4,5,1.3c3.5,1.9,5.6,5.5,5.6,9.4
			v157.1h15.8c5.9,0,10.7,4.8,10.7,10.7s-4.8,10.7-10.7,10.7H159.9z"/>
		<path d="M301.1,382.4c-20.5,0-37.1-16.7-37.1-37.1V230.5c0-20.5,16.7-37.1,37.1-37.1h26.5c20.5,0,37.1,16.7,37.1,37.1v114.8
			c0,20.5-16.7,37.1-37.1,37.1H301.1z M301.1,214.7c-8.7,0-15.8,7.1-15.8,15.8v114.8c0,8.7,7.1,15.8,15.8,15.8h26.5
			c8.7,0,15.8-7.1,15.8-15.8V230.5c0-8.7-7.1-15.8-15.8-15.8H301.1z"/>
	</g>
</g>
</svg>
