<?xml version="1.0" encoding="utf-8"?>
<!-- Generator: Adobe Illustrator 24.1.2, SVG Export Plug-In . SVG Version: 6.00 Build 0)  -->
<svg version="1.1" id="Layer_1" xmlns="http://www.w3.org/2000/svg" xmlns:xlink="http://www.w3.org/1999/xlink" x="0px" y="0px"
	 width="25px" height="25px" viewBox="0 0 512 512" style="enable-background:new 0 0 512 512;fill:#fff" xml:space="preserve">
<path d="M323.6079102,420.9988098v-21.5692139h78.8119507l0.0106506-77.1071167h22.4234314v68.6149597
	C424.6217346,407.4608765,410.8942261,421,394.253479,421L323.6079102,420.9988098z M117.7453232,421
	c-16.640152,0-30.3670502-13.5391235-30.600441-30.1810608l0.0005951-68.49646h22.4222336v77.1071167h78.8243637v21.5692139
	L117.7453232,421z M402.4317017,189.6775208v-77.1071014h-78.8237915V91.0011826L394.253479,91
	c16.6407471,0,30.3682556,13.5391159,30.6016541,30.1816406l-0.0011902,68.4958801H402.4317017z M87.1454773,189.6775208
	v-68.6149445C87.378273,104.539711,101.1051712,91,117.7453232,91l70.6467514,0.0011826v21.5692368h-78.8243637v77.1071014
	H87.1454773z"/>
</svg>
