<svg xmlns="http://www.w3.org/2000/svg" xmlns:xlink="http://www.w3.org/1999/xlink" fill="#4E006E" width="30" height="30"
     viewBox="0 0 30 30">
    <defs>
        <clipPath id="a">
            <rect class="a" width="30" height="30"/>
        </clipPath>
    </defs>
    <g class="b">
        <path class="c"
              d="M15.586,28.828A1.172,1.172,0,0,1,14.414,30H1.172A1.172,1.172,0,0,1,0,28.828V12.7a1.171,1.171,0,0,1,.422-.9L14.25.272a1.172,1.172,0,0,1,1.5,0L29.578,11.8a1.172,1.172,0,1,1-1.5,1.8L15,2.7,2.344,13.244V27.656h12.07a1.172,1.172,0,0,1,1.172,1.172Zm12.559-3.17a17.468,17.468,0,0,1-5.707,4.219,1.173,1.173,0,0,1-1.047,0,17.464,17.464,0,0,1-5.707-4.219c-3.817-4.6-1.159-9.679,2.774-9.679a5.4,5.4,0,0,1,3.457,1.244,5.4,5.4,0,0,1,3.457-1.244C29.311,15.978,31.952,21.068,28.145,25.658Zm-2.774-7.336a3.162,3.162,0,0,0-2.48,1.227,1.16,1.16,0,0,1-1.95,0,3.149,3.149,0,0,0-2.483-1.232c-2.526,0-4.7,4.868,3.457,9.188,8.153-4.32,5.983-9.188,3.457-9.188Zm0,0"
              transform="translate(0 0)"/>
    </g>
</svg>
