<?xml version="1.0" encoding="utf-8"?>
<!-- Generator: Adobe Illustrator 24.1.2, SVG Export Plug-In . SVG Version: 6.00 Build 0)  -->
<svg version="1.1" id="Layer_1" xmlns="http://www.w3.org/2000/svg" xmlns:xlink="http://www.w3.org/1999/xlink" x="0px" y="0px"
	 width="25px" height="25px" viewBox="0 0 512 512" style="enable-background:new 0 0 512 512;fill:#fff" xml:space="preserve">
<style type="text/css">
	
</style>
<path id="Path_3246" class="st0" d="M276.1799622,91.6052475c-6.1914978-3.5746231-13.8197021-3.5746231-20.0112,0
	l-135.3865204,77.3426743h-74.71978c-11.0518837,0-20.0112019,8.9593353-20.0112019,20.0111694c0,0.0000763,0,0.0000763,0,0.0000763
	v120.0672302c0.000021,11.0518494,8.9593334,20.0111694,20.0112019,20.0111694h74.71978l135.476944,77.3991699
	c9.596344,5.4822693,21.8199158,2.1470947,27.3021545-7.4492493c1.7254028-3.0201721,2.6337891-6.4379883,2.6355286-9.9163513
	V108.9143524C286.1869812,101.7702713,282.3692627,95.173233,276.1799622,91.6052475z"/>
<g id="Group_2288" transform="translate(27.543 8.108)">
	<g id="Group_2272" transform="translate(0 0)">
		<path d="M330.7803345,311.0179749c-1.6191406,0-4.0273438-0.3896484-6.3105469-2.2480469
			c-4.2822266-3.4853516-4.9296875-9.8056641-1.4443359-14.0888672l0.1621094-0.1992188l0.1523438-0.2080078
			c23.3681641-31.9335938,23.3681641-74.8442383,0-106.7788086l-0.2197266-0.2895508
			c-3.3554688-4.2519531-2.6787109-10.5058594,1.5087891-13.9414063c2.2890625-1.8774414,4.7099609-2.2714844,6.3388672-2.2714844
			c2.9667969,0,5.7490234,1.2915039,7.65625,3.5488281c29.7753906,39.1181641,29.7548828,93.671875-0.0566406,132.7714844
			l-0.0664063,0.0830078C336.6484985,309.6722717,333.8135376,311.0179749,330.7803345,311.0179749L330.7803345,311.0179749z"/>
	</g>
</g>
<g id="Group_2289" transform="translate(34.623 2.798)">
	<g id="Group_2274" transform="translate(0 0)">
		<path d="M383.3317871,376.3621521c-1.6191406,0-4.0283203-0.390625-6.3105469-2.2480469
			c-4.2822266-3.4853516-4.9306641-9.8066406-1.4443359-14.0888672l0.1298828-0.1591797l0.1230469-0.1650391
			c49.9648438-66.8310547,49.9648438-160.1816406,0-227.0117188l-0.1591797-0.2080078
			c-3.3574219-4.2529297-2.6796875-10.5082932,1.5097656-13.9443283c2.2880859-1.8759766,4.7080078-2.2700195,6.3359375-2.2700195
			c2.9550781,0,5.7255859,1.2797852,7.6318359,3.5185547c27.4423828,36.7958908,41.9472656,80.5038986,41.9472656,126.4150314
			c0,45.9448242-14.5253906,89.6821289-42.0078125,126.4956055l-0.0351563,0.0439453
			c-1.8525391,2.2753906-4.6875,3.6220703-7.7197266,3.6220703
			C383.3317871,376.3621521,383.3317871,376.3621521,383.3317871,376.3621521z"/>
	</g>
</g>
</svg>
