<?xml version="1.0" encoding="utf-8"?>
<!-- Generator: Adobe Illustrator 24.1.2, SVG Export Plug-In . SVG Version: 6.00 Build 0)  -->
<svg version="1.1" id="Layer_1" xmlns="http://www.w3.org/2000/svg" xmlns:xlink="http://www.w3.org/1999/xlink" x="0px" y="0px"
	 width="28px" height="28px" viewBox="0 0 512 512" style="enable-background:new 0 0 512 512;fill:#fff" xml:space="preserve">
<g>
	<path d="M409,101.2514648H121.8857422c-28.9682617,0-52.5356445,23.5673828-52.5356445,52.5356445v212.6777344
		C69.3500977,395.4326172,92.9174805,419,121.8857422,419H409c28.9677734,0,52.5351563-23.5673828,52.5351563-52.5351563
		V153.7871094C461.5351563,124.8188477,437.9677734,101.2514648,409,101.2514648z M441.5351563,366.4648438
		C441.5351563,384.4052734,426.9394531,399,409,399H121.8857422c-17.9404297,0-32.5356445-14.5947266-32.5356445-32.5351563
		V153.7871094c0-17.9404297,14.5952148-32.5356445,32.5356445-32.5356445H409
		c17.9394531,0,32.5351563,14.5952148,32.5351563,32.5356445V366.4648438z"/>
	<path d="M387.7322388,228.2242432H249.4919434c-17.6187744,0-31.9016113,14.2828369-31.9016113,31.9016113v85.0709229
		c0,17.6187744,14.2828369,31.9016113,31.9016113,31.9016113h138.2402954c17.6187744,0,31.9016113-14.2828369,31.9016113-31.9016113
		v-85.0709229C419.6338501,242.5070801,405.3510132,228.2242432,387.7322388,228.2242432z"/>
</g>
</svg>
