<?xml version="1.0" encoding="utf-8"?>
<!-- Generator: Adobe Illustrator 24.1.2, SVG Export Plug-In . SVG Version: 6.00 Build 0)  -->
<svg version="1.1" id="Layer_1" xmlns="http://www.w3.org/2000/svg" xmlns:xlink="http://www.w3.org/1999/xlink" x="0px" y="0px"
	 width="25px" height="25px" viewBox="0 0 512 512" style="enable-background:new 0 0 512 512;fill:#fff" xml:space="preserve">
<g id="Page-1">
	<g id="_x31_19---Rewind">
		<path d="M256.1181641,505.0507813c-2.215332,0-4.4594727-0.0332031-6.6704102-0.0986328
			c-58.1860352-1.7138672-112.5605469-25.6601563-153.1074219-67.4277344S33.4702148,340.6953125,33.4829102,282.484375
			c-0.1826172-49.8925781,16.8115234-98.847168,47.8510742-137.8745117l0.0678711-0.0869141
			c2.0029297-2.6015625,5.1582031-4.1547852,8.4399414-4.1547852c0.4990234,0,1.003418,0.0361328,1.4995117,0.1064453
			c3.7939453,0.5380859,7.0205078,3.0878906,8.4208984,6.6542969c1.4003906,3.5668945,0.7709961,7.6308594-1.6425781,10.6064453
			c-28.1230469,35.3642578-43.4951172,79.6577148-43.3266602,124.7734375
			C54.7675781,390.9638672,139.6606445,479.296875,248.0595703,483.578125
			c2.6796875,0.1064453,5.3920898,0.1601563,8.0610352,0.1601563
			c104.2094727-0.0048828,192.2631836-81.4375,200.4633789-185.3886719
			c8.5302734-108.1479492-69.1757813-202.8637695-176.9052734-215.6303711l-22.8554688-2.7084961l41.4775391,35.5419922
			l0.0722656,0.0576172c3.0039063,2.4404297,4.4492188,6.3232422,3.7724609,10.1328125
			c-0.6757813,3.8110352-3.3701172,6.9584961-7.0302734,8.215332c-1.1171875,0.3837891-2.2802734,0.578125-3.4580078,0.578125
			c-2.640625,0-5.1748047-0.9731445-7.1347656-2.7407227l-61.925293-53.0810547
			c-2.3686523-2.0283203-3.7260742-4.9780273-3.7260742-8.0942383c0-3.1157227,1.3574219-6.065918,3.7241211-8.0927734
			L284.3115234,9.628418c1.9082031-1.5273438,4.2050781-2.3339844,6.6455078-2.3339844
			c3.1230469,0,6.0761719,1.3583984,8.1035156,3.7270508c3.7705078,4.4052734,3.3681641,10.887207-0.9042969,14.7919922
			l-39.1855469,33.6005859l16.5683594,1.4604492c57.9863281,5.1113281,110.8691406,32.1943359,148.9052734,76.2597656
			c38.0361328,44.065918,57.1035156,100.3369141,53.6894531,158.4487305
			c-6.9003906,117.4570313-104.4199219,209.4677734-222.0039063,209.4677734
			C256.1230469,505.0507813,256.1254883,505.0507813,256.1181641,505.0507813z"/>
		<path d="M176.8984375,134.5366211c-2.640625,0-5.175293-0.9736328-7.1362305-2.7412109l-61.9238281-53.0805664
			c-2.3686523-2.0288086-3.7260742-4.9780273-3.7260742-8.0942383c0-3.1157227,1.3574219-6.0654297,3.7241211-8.0927734
			l61.7158203-52.8989258c1.9086914-1.527832,4.2050781-2.3344727,6.6464844-2.3344727
			c3.1225586,0,6.0766602,1.3583984,8.1035156,3.7270508c3.7700195,4.4052734,3.3676758,10.8876953-0.9047852,14.7919922
			l-52.2666016,44.8071289l52.4833984,44.9902344c3.003418,2.4399414,4.449707,6.3227539,3.7734375,10.1333008
			c-0.6767578,3.8100586-3.3706055,6.9575195-7.0307617,8.2143555
			C179.2397461,134.3422852,178.0761719,134.5366211,176.8984375,134.5366211L176.8984375,134.5366211z"/>
		<path d="M158.8964844,381.4140625c-5.8754883,0-10.6552734-4.7802734-10.6552734-10.6552734
			s4.7797852-10.6552734,10.6552734-10.6552734h15.8276367V223.8911133l-10.484375,6.0166016
			c-1.6142578,0.9262695-3.4428711,1.4160156-5.2885742,1.4160156c-3.71875,0-7.1079102-1.8828125-9.0668945-5.0366211
			c-3.0439453-4.9018555-1.6738281-11.2587891,3.1201172-14.4716797l26.4677734-17.6459961
			c1.7543945-1.168457,3.7978516-1.7871094,5.9086914-1.7871094c1.7470703,0,3.4853516,0.4360352,5.0263672,1.2607422
			c3.4702148,1.8579102,5.6264648,5.4570313,5.6274414,9.3930664v157.0673828h15.8276367
			c5.875,0,10.6547852,4.7802734,10.6547852,10.6552734s-4.7797852,10.6552734-10.6547852,10.6552734H158.8964844z"/>
		<path d="M300.1376953,381.4140625C279.6601563,381.4140625,263,364.7539063,263,344.2753906V229.5170898
			c0-20.4780273,16.6601563-37.1376953,37.1376953-37.1376953h26.4833984c20.4775391,0,37.1376953,16.659668,37.1376953,37.1376953
			v114.7583008c0,20.4785156-16.6601563,37.1386719-37.1376953,37.1386719H300.1376953z M300.1376953,213.6894531
			c-8.7275391,0-15.8271484,7.1000977-15.8271484,15.8276367v114.7583008c0,8.7275391,7.0996094,15.828125,15.8271484,15.828125
			h26.4833984c8.7275391,0,15.8271484-7.1005859,15.8271484-15.828125V229.5170898
			c0-8.7275391-7.0996094-15.8276367-15.8271484-15.8276367H300.1376953z"/>
	</g>
</g>
</svg>
