<?xml version="1.0" encoding="utf-8"?>
<!-- Generator: Adobe Illustrator 24.1.2, SVG Export Plug-In . SVG Version: 6.00 Build 0)  -->
<svg version="1.1" id="Layer_1" xmlns="http://www.w3.org/2000/svg" xmlns:xlink="http://www.w3.org/1999/xlink" x="0px" y="0px"
	 width="25px" height="25px" viewBox="0 0 512 512" style="enable-background:new 0 0 512 512;fill:#fff" xml:space="preserve">
<path d="M301.2,467.5c-0.1,0-0.2,0-0.3,0h-78.7c-9.8,0.1-18.2-7-19.6-16.6l-6.7-45.7c-9-4-17.6-8.9-25.7-14.6L125.9,408
	c-9,3.3-19.1-0.3-24-8.5l-39.5-66.8c-4.9-8.4-2.9-19.3,4.7-25.3l0.1-0.1l37.1-28.4c-0.5-4.8-0.7-9.6-0.8-14.3l0-0.1l0-0.1
	c0-4.8,0.3-9.6,0.8-14.4l-37.1-28.4c-7.9-6-10-16.9-4.8-25.4l39.4-66.6c4.8-8.5,15.3-12.2,24.4-8.6l44.1,17.3
	c8.1-5.6,16.7-10.5,25.7-14.6l6.7-45.6c1.5-9.7,9.9-16.8,19.6-16.7h78.7c0.1,0,0.2,0,0.3,0c9.6,0,17.9,7.1,19.3,16.7l6.7,45.6
	c9,4,17.6,8.9,25.7,14.6l44.2-17.4c9-3.3,19.1,0.3,24,8.5l39.5,66.8c4.9,8.4,2.9,19.3-4.7,25.3l-0.1,0.1l-37.1,28.4
	c0.5,4.8,0.7,9.6,0.8,14.4v0.2c0,4.8-0.3,9.6-0.8,14.4l37.3,28.5c7.6,6,9.7,16.9,4.8,25.2l-39.5,66.7c-4.9,8.4-15.3,12.1-24.4,8.5
	l-44-17.3c-8.1,5.6-16.7,10.5-25.7,14.6l-6.7,45.6C319.1,460.4,310.8,467.5,301.2,467.5z M222.2,447.5h78.6l8.3-56.3l5.3-2.2
	c11.1-4.6,21.6-10.5,31.2-17.7l4.5-3.3l54.1,21.3l39.2-66.3l-45.9-35.1l0.8-5.8c0.8-5.8,1.2-11.7,1.3-17.5
	c-0.1-5.8-0.5-11.8-1.3-17.5l-0.8-5.8l45.9-35.1l-39.2-66.3l-54.2,21.3l-4.5-3.4c-9.5-7.2-20-13.1-31-17.6l-5.3-2.1l-8.3-56.4h-78.6
	l-8.3,56.3l-5.3,2.2c-11.1,4.6-21.6,10.5-31.2,17.7l-4.5,3.3L119,139.8l-39.2,66.3l45.8,35.1l-0.8,5.8c-0.8,5.8-1.2,11.7-1.3,17.6
	c0.1,5.9,0.5,11.8,1.3,17.6l0.8,5.8l-45.8,35.1l39.2,66.3l54.2-21.3l4.5,3.4c9.5,7.2,20,13.1,31,17.6l5.3,2.1L222.2,447.5z
	 M79.3,205.7L79.3,205.7C79.3,205.7,79.3,205.7,79.3,205.7z M262.2,342.1c-0.2,0-0.5,0-0.7,0l-0.1,0c-42.8-0.9-76.8-36.5-75.9-79.2
	c0.4-20.7,8.9-40,23.9-54.3c15-14.3,34.6-22,55.3-21.5c20.4,0.4,39.5,8.7,53.8,23.3c14.3,14.6,22.1,33.9,22.1,54.3l0,0.1
	C340,307.5,304.9,342.1,262.2,342.1z M261.7,322.1c0.2,0,0.3,0,0.5,0c31.8,0,58-25.7,58.4-57.6c0-31-25.3-56.8-56.3-57.5
	c-15.4-0.3-30,5.3-41.1,16c-11.1,10.6-17.4,25-17.7,40.3C204.8,295,230,321.4,261.7,322.1z"/>
</svg>
