<?xml version="1.0" encoding="utf-8"?>
<!-- Generator: Adobe Illustrator 24.1.2, SVG Export Plug-In . SVG Version: 6.00 Build 0)  -->
<svg version="1.1" id="Layer_1" xmlns="http://www.w3.org/2000/svg" xmlns:xlink="http://www.w3.org/1999/xlink" x="0px" y="0px"
	 width="25px" height="25px" viewBox="0 0 512 512" style="enable-background:new 0 0 512 512;fill:#fff" xml:space="preserve">
<path id="Path_3236" d="M459.2001038,211.782074L319.262207,91.8383942
	c-4.1908264-3.590126-10.4983826-3.1032486-14.0885925,1.0874939c-1.5497742,1.8091125-2.4022827,4.1124649-2.4036865,6.4946594
	v70.1134949c-111.6975708,3.1056976-165.5758514,58.3976288-191.1924591,104.9507904
	c-16.1726379,30.0075989-25.8424454,63.0856018-28.3794708,97.0793762c-0.2142334,2.5202026-0.3211823,5.086792-0.3212662,7.6999817
	l0,0l0,0l0,0l0,0l0,0l0,0l0,0l0,0v0.0856934l0,0l0,0l0,0v0.2462769l0,0v0.1177979l0,0v0.0535278l0,0l0,0l0,0v0.0856934l0,0
	v0.0857239l0,0v0.0535278l0,0l0,0l0,0l0,0l0,0l0,0l0,0l0,0l0,0l0,0l0,0v0.0749817l0,0l0,0l0,0l0,0
	c0.6745605,5.4769592,5.6612701,9.3699646,11.1382141,8.6954041c5.0159607-0.6177673,8.7808533-4.8837585,8.7703094-9.9376526l0,0
	c0-0.5032959,0-1.7456055,0.0964127-3.6410828c4.3586502-83.1253052,157.9294891-101.984314,199.8241119-105.5826111v69.2246094
	c0.0032959,5.51828,4.4794312,9.9891052,9.9976196,9.9858398c2.3822021-0.0014648,4.6854553-0.8538818,6.4945679-2.4036865
	l139.9379272-119.9436646c4.187561-3.5757446,4.6835022-9.8690796,1.1077576-14.0565643
	c-0.3395691-0.3977356-0.710022-0.7680969-1.1077576-1.1077576L459.2001038,211.782074z M322.753479,317.5895386v-58.2476196
	c-0.0117798-5.5133972-4.4782715-9.9799652-9.9917297-9.9917297h-0.4605103
	c-7.0359497,0.3212585-133.2339172,6.8218079-195.4118652,60.2824097
	c20.5724716-54.2424469,71.1951828-120.2649536,195.8187561-120.2649536l0,0
	c5.5157776-0.0058899,9.9858398-4.4758911,9.9917297-9.9917297v-58.2369919l114.5890503,98.2253036L322.753479,317.5895386z"/>
</svg>
