<?xml version="1.0" encoding="utf-8"?>
<!-- Generator: Adobe Illustrator 24.1.2, SVG Export Plug-In . SVG Version: 6.00 Build 0)  -->
<svg version="1.1" id="Layer_1" xmlns="http://www.w3.org/2000/svg" xmlns:xlink="http://www.w3.org/1999/xlink" x="0px" y="0px"
	 width="28px" height="28px" viewBox="0 0 512 512" style="enable-background:new 0 0 512 512;fill:#fff" xml:space="preserve">
<g id="Rectangle_2009">
	<path d="M453.5996094,371.9667969H58.3999023C41.3618164,371.9667969,27.5,358.1044922,27.5,341.0664063V178.9331055
		c0-17.0380859,13.8618164-30.8999023,30.8999023-30.8999023h395.199707c17.0380859,0,30.9003906,13.8618164,30.9003906,30.8999023
		v162.1333008C484.5,358.1044922,470.6376953,371.9667969,453.5996094,371.9667969z M58.3999023,149.0332031
		C41.9130859,149.0332031,28.5,162.4462891,28.5,178.9331055v162.1333008c0,16.4873047,13.4130859,29.9003906,29.8999023,29.9003906
		h395.199707c16.4873047,0,29.9003906-13.4130859,29.9003906-29.9003906V178.9331055
		c0-16.4868164-13.4130859-29.8999023-29.9003906-29.8999023H58.3999023z"/>
	<path d="M453.5996094,371.3330078H58.3999023c-16.6889648,0-30.2666016-13.5771484-30.2666016-30.2666016V178.9331055
		c0-16.6889648,13.5776367-30.2666016,30.2666016-30.2666016h395.199707c16.6894531,0,30.2666016,13.5776367,30.2666016,30.2666016
		v162.1333008C483.8662109,357.7558594,470.2890625,371.3330078,453.5996094,371.3330078z M58.3999023,168.6665039
		c-5.6611328,0-10.2666016,4.6054688-10.2666016,10.2666016v162.1333008c0,5.6611328,4.6054688,10.2666016,10.2666016,10.2666016
		h395.199707c5.6611328,0,10.2666016-4.6054688,10.2666016-10.2666016V178.9331055
		c0-5.6611328-4.6054688-10.2666016-10.2666016-10.2666016H58.3999023z"/>
</g>
</svg>
